<?xml version="1.0" standalone="no"?>
<!DOCTYPE svg PUBLIC "-//W3C//DTD SVG 20010904//EN"
 "http://www.w3.org/TR/2001/REC-SVG-20010904/DTD/svg10.dtd">
<svg version="1.0" xmlns="http://www.w3.org/2000/svg"
 width="90.000000pt" height="90.000000pt" viewBox="0 0 1500.000000 1500.000000"
 preserveAspectRatio="xMidYMid meet">

<g transform="translate(0.000000,1500.000000) scale(0.100000,-0.100000)"
fill="#000000" stroke="none">
<path d="M6845 11439 c-898 -74 -1735 -473 -2371 -1131 -797 -826 -1165 -1965
-1004 -3109 141 -1002 698 -1916 1528 -2507 589 -420 1266 -652 2007 -688 121
-6 495 9 593 24 l43 7 -68 57 c-92 76 -406 394 -488 493 -394 476 -666 1090
-758 1712 l-14 93 246 2 246 3 3 349 2 348 49 47 c72 68 88 139 50 218 -47 98
-218 168 -456 188 -46 4 -83 11 -83 16 0 42 120 424 187 594 491 1246 1736
2124 3096 2182 81 3 146 9 145 12 -2 4 -49 50 -105 103 -679 639 -1606 1003
-2542 997 -113 -1 -251 -5 -306 -10z m63 -1490 c12 -5 25 -15 28 -22 3 -8 -66
-131 -152 -273 -376 -620 -777 -1364 -736 -1364 19 0 106 64 159 117 52 52
150 168 209 249 12 16 25 26 29 22 5 -5 18 -47 31 -95 20 -78 21 -91 9 -120
-34 -81 -168 -234 -304 -346 -133 -111 -200 -139 -279 -118 -90 25 -142 107
-123 193 34 150 293 656 634 1238 11 19 16 31 10 25 -5 -5 -169 -210 -363
-455 -367 -463 -708 -881 -783 -962 -51 -55 -94 -68 -150 -45 -88 37 -95 74
-41 229 71 204 328 836 432 1061 23 48 39 87 37 87 -7 0 -133 -177 -232 -325
-302 -455 -571 -934 -723 -1292 -34 -81 -58 -124 -71 -128 -24 -8 -120 10
-157 29 -16 8 -35 29 -42 46 -15 35 -4 71 63 205 286 575 908 1548 1171 1832
78 84 121 113 167 113 19 0 52 7 74 14 44 15 135 7 161 -15 28 -23 31 -17
-229 -599 -147 -331 -292 -665 -308 -710 l-9 -25 18 24 c331 468 942 1212
1124 1371 74 65 80 66 209 57 62 -5 124 -13 137 -18z m-522 -2434 c100 -7 214
-35 286 -70 92 -47 128 -93 128 -165 0 -53 -19 -89 -75 -138 l-45 -40 0 -346
0 -346 -450 0 -450 0 0 348 0 347 -35 24 c-41 27 -74 77 -85 127 -31 136 148
241 445 263 61 4 130 7 155 5 25 -2 82 -6 126 -9z m-727 -1894 c4 -9 19 -108
31 -219 23 -200 24 -204 49 -214 31 -11 41 -25 41 -59 0 -29 -17 -49 -42 -49
-16 0 -18 -5 -13 -34 6 -27 2 -39 -14 -55 -12 -12 -30 -21 -40 -21 -26 0 -61
46 -61 81 0 28 -2 29 -49 29 l-49 0 -18 -57 c-18 -55 -21 -58 -59 -65 -57 -9
-68 8 -62 97 6 81 67 371 98 466 23 70 43 99 69 99 10 0 30 6 44 14 31 16 63
11 75 -13z m465 -2 c14 -11 26 -26 26 -32 0 -7 10 -17 23 -22 28 -13 56 -73
92 -197 16 -54 32 -98 37 -98 4 0 8 35 9 78 0 42 4 117 8 166 7 75 12 92 31
108 29 23 45 23 71 -3 18 -18 20 -28 14 -63 -4 -22 -10 -156 -14 -296 -6 -221
-9 -259 -25 -282 -30 -46 -89 -49 -101 -5 -14 46 -108 282 -117 292 -6 6 -8
-49 -6 -140 3 -145 2 -149 -19 -160 -29 -15 -104 -5 -113 15 -38 79 -49 220
-30 398 6 59 14 134 17 167 9 91 42 117 97 74z m-1107 -15 c46 -17 98 -69 119
-120 8 -19 14 -65 14 -104 0 -118 -46 -180 -146 -195 l-44 -6 0 -100 c0 -109
-10 -131 -66 -145 -33 -9 -53 3 -79 47 -18 31 -20 51 -19 239 1 236 19 363 54
392 24 20 98 16 167 -8z"/>
<path d="M6353 7490 c-26 -11 -41 -56 -26 -79 6 -9 22 -20 36 -25 55 -20 93
64 45 98 -25 18 -25 18 -55 6z m52 -50 c0 -20 -6 -26 -26 -28 -30 -4 -46 22
-28 45 20 23 54 12 54 -17z"/>
<path d="M5939 7394 c-17 -21 0 -49 31 -49 27 0 46 25 37 49 -8 21 -51 21 -68
0z m43 -19 c0 -5 -5 -11 -11 -13 -6 -2 -11 4 -11 13 0 9 5 15 11 13 6 -2 11
-8 11 -13z"/>
<path d="M6510 7245 c-23 -28 9 -72 45 -59 36 14 24 74 -15 74 -10 0 -23 -7
-30 -15z m36 -32 c-10 -10 -19 5 -10 18 6 11 8 11 12 0 2 -7 1 -15 -2 -18z"/>
<path d="M5940 7135 c-18 -22 -15 -66 6 -82 57 -42 128 33 76 80 -23 21 -66
22 -82 2z m70 -24 c7 -15 6 -24 -6 -36 -9 -9 -21 -14 -27 -12 -18 6 -31 33
-24 51 9 22 44 20 57 -3z"/>
<path d="M6234 7016 c-12 -31 0 -51 31 -51 27 0 30 3 30 30 0 25 -4 30 -28 33
-17 2 -29 -2 -33 -12z m46 -21 c0 -8 -4 -15 -9 -15 -13 0 -22 16 -14 24 11 11
23 6 23 -9z"/>
<path d="M6507 6912 c-35 -38 -8 -92 45 -92 31 0 51 21 51 55 0 14 -6 32 -13
40 -17 21 -63 19 -83 -3z m68 -37 c0 -35 -31 -47 -51 -20 -18 25 0 57 29 53
17 -2 22 -10 22 -33z"/>
<path d="M5925 6877 c-10 -8 -16 -23 -13 -38 2 -19 9 -24 33 -24 25 0 31 4 33
27 4 34 -26 54 -53 35z m33 -28 c-2 -6 -8 -10 -13 -10 -5 0 -11 4 -13 10 -2 6
4 11 13 11 9 0 15 -5 13 -11z"/>
<path d="M5820 6615 c0 -103 4 -165 10 -165 6 0 10 62 10 165 0 103 -4 165
-10 165 -6 0 -10 -62 -10 -165z"/>
<path d="M6374 6656 c-12 -31 0 -51 31 -51 27 0 30 3 30 30 0 25 -4 30 -28 33
-17 2 -29 -2 -33 -12z m38 -21 c0 -5 -5 -11 -11 -13 -6 -2 -11 4 -11 13 0 9 5
15 11 13 6 -2 11 -8 11 -13z"/>
<path d="M5990 6620 c-11 -11 -20 -29 -20 -40 0 -24 34 -60 55 -60 18 0 65 44
65 60 0 16 -47 60 -65 60 -8 0 -24 -9 -35 -20z m65 -40 c0 -20 -6 -26 -26 -28
-30 -4 -46 22 -28 45 20 23 54 12 54 -17z"/>
<path d="M5577 5360 c-8 -19 -37 -141 -37 -157 0 -8 13 -13 33 -13 l33 0 -8
78 c-10 101 -13 112 -21 92z"/>
<path d="M4950 5421 c0 -86 9 -121 31 -121 58 0 83 114 36 158 -13 12 -33 22
-45 22 -20 0 -22 -5 -22 -59z"/>
<path d="M9166 10225 c-52 -18 -75 -43 -136 -145 -55 -92 -267 -516 -350 -700
-29 -63 -55 -118 -59 -122 -4 -4 -25 1 -46 12 -37 18 -45 18 -106 6 -121 -26
-260 -109 -392 -235 -105 -99 -187 -211 -248 -337 -39 -78 -54 -101 -67 -98
-11 3 -57 -32 -132 -101 -192 -178 -275 -221 -412 -213 -62 3 -73 7 -94 31
-13 16 -24 37 -24 48 0 41 160 182 279 245 56 30 121 84 121 101 0 6 -10 25
-23 44 -30 45 -69 48 -152 15 -75 -30 -116 -36 -123 -17 -6 18 140 160 219
211 l64 41 6 -29 c9 -44 17 -52 52 -52 110 1 231 147 196 237 -10 28 -64 53
-112 53 -100 0 -301 -83 -427 -176 -65 -48 -133 -128 -161 -189 -36 -77 -19
-199 31 -237 l29 -21 -47 -30 c-70 -44 -112 -86 -138 -142 -84 -176 73 -331
315 -312 162 13 320 88 469 222 29 26 54 46 56 44 1 -2 8 -24 15 -48 24 -84
66 -121 139 -123 136 -4 339 155 487 380 15 23 29 41 30 40 2 -2 -5 -34 -15
-73 -11 -38 -19 -99 -19 -135 -1 -86 20 -128 79 -158 95 -49 230 -8 344 105
l55 54 42 -46 c61 -66 109 -88 192 -88 59 0 78 5 152 42 46 23 108 63 136 90
l53 48 30 -40 c64 -83 164 -103 267 -52 80 39 206 150 276 243 l61 81 -5 -58
c-13 -140 66 -241 188 -241 80 0 162 43 253 134 99 99 136 157 135 215 0 59
-20 115 -41 119 -10 2 -37 -23 -74 -70 -141 -180 -233 -246 -264 -189 -38 72
34 345 161 609 78 162 72 192 -41 192 -47 0 -56 -4 -84 -34 l-31 -34 -27 23
c-60 52 -179 42 -313 -25 -199 -99 -421 -359 -480 -563 -23 -81 -149 -228
-233 -271 -49 -25 -106 -31 -121 -12 -24 29 -5 89 93 301 135 289 216 479 216
505 0 27 -48 77 -83 85 -16 4 -40 0 -64 -11 -64 -31 -233 -209 -233 -246 0 -4
13 -23 30 -41 l29 -34 -79 -169 c-51 -108 -86 -171 -98 -175 -10 -4 -51 -48
-91 -98 -73 -92 -120 -135 -178 -165 -40 -20 -48 -20 -67 0 -22 22 -20 58 9
159 68 233 219 582 501 1155 112 228 204 424 204 436 0 44 -49 56 -124 29z
m959 -1142 c-53 -87 -113 -178 -133 -203 -57 -70 -289 -305 -317 -320 -86 -46
-46 140 69 324 122 193 271 322 417 360 30 7 55 10 57 6 2 -5 -40 -79 -93
-167z m-1596 0 c-184 -308 -483 -679 -541 -671 -34 5 -34 41 2 139 88 245 283
453 515 551 22 9 41 17 43 17 2 1 -6 -16 -19 -36z"/>
<path d="M9505 9821 c-74 -33 -135 -123 -135 -198 0 -56 23 -83 69 -83 117 0
241 200 171 275 -28 30 -51 31 -105 6z"/>
<path d="M9002 8085 c-217 -49 -429 -244 -675 -621 -46 -71 -120 -196 -164
-279 -44 -82 -117 -219 -162 -303 -74 -139 -169 -301 -203 -344 -12 -16 -25
-16 -155 -7 -117 9 -160 8 -248 -5 -183 -27 -301 -80 -352 -158 -55 -82 -27
-239 49 -286 179 -111 549 -28 766 171 48 45 30 45 257 2 245 -46 297 -54 435
-64 85 -6 183 -7 263 -1 183 13 252 35 286 90 l18 30 32 -40 c106 -132 275
-46 499 255 41 55 76 102 78 104 3 3 -2 -15 -11 -38 -17 -50 -20 -167 -4 -208
46 -123 212 -140 349 -36 26 20 50 31 60 27 35 -14 118 -27 133 -21 9 3 67 84
130 179 155 236 385 527 511 646 48 45 84 67 74 45 -2 -5 -48 -96 -101 -203
-134 -270 -174 -426 -133 -523 17 -43 73 -90 130 -112 39 -15 54 -16 102 -7
82 17 131 43 213 113 49 43 76 59 79 51 8 -25 64 -83 96 -99 54 -28 133 -21
206 18 75 40 229 183 285 264 21 30 39 55 39 55 1 0 1 -40 1 -89 0 -83 2 -92
30 -133 60 -85 162 -103 272 -48 70 35 218 181 253 251 20 39 21 48 12 107 -6
36 -15 69 -21 75 -18 18 -47 -5 -106 -85 -101 -136 -201 -211 -239 -179 -23
19 -26 67 -11 154 22 128 131 426 195 534 44 75 17 123 -70 123 -47 0 -56 -4
-84 -33 l-31 -33 -33 23 c-123 82 -360 -10 -553 -214 -134 -142 -208 -263
-245 -399 -15 -57 -27 -75 -88 -142 -87 -92 -146 -132 -198 -132 -29 0 -41 6
-54 24 -31 48 13 158 221 556 98 187 106 246 42 294 -41 30 -125 27 -197 -7
-75 -36 -180 -127 -264 -228 -39 -46 -74 -88 -79 -94 -5 -5 14 35 42 90 104
207 92 257 -48 213 -75 -23 -99 -60 -246 -367 -110 -231 -142 -291 -160 -295
-12 -3 -49 -41 -82 -83 -33 -43 -85 -101 -116 -130 -142 -135 -177 -43 -87
232 23 72 80 214 126 316 97 215 104 237 76 262 -17 15 -26 16 -68 7 -89 -20
-116 -46 -184 -181 -67 -135 -102 -188 -233 -364 -163 -218 -281 -345 -319
-345 -15 0 -8 65 13 130 27 83 62 171 159 400 44 103 80 195 80 205 0 31 -50
75 -85 75 -57 0 -85 -44 -238 -380 -81 -180 -129 -310 -147 -407 -12 -61 -12
-61 -56 -72 -70 -18 -370 -13 -564 9 -169 19 -441 59 -449 66 -2 1 28 58 67
126 38 68 125 224 192 348 209 386 322 564 454 719 102 120 207 201 258 201
46 0 10 -57 -121 -193 -97 -100 -175 -161 -195 -154 -40 16 -49 -70 -13 -124
14 -22 38 -39 64 -48 37 -13 45 -13 88 3 90 35 268 198 355 326 66 97 90 157
90 224 0 146 -110 212 -288 171z m2932 -917 c-111 -183 -152 -235 -306 -394
-119 -122 -172 -159 -189 -134 -18 27 0 101 50 206 101 210 239 366 401 450
34 17 131 44 139 38 2 -2 -41 -76 -95 -166z m-4363 -854 c-71 -50 -244 -81
-284 -51 -45 33 55 65 213 66 90 1 93 0 71 -15z"/>
<path d="M8678 5630 c-36 -22 -58 -168 -58 -380 0 -147 12 -211 53 -271 20
-30 29 -34 70 -37 l48 -3 -1 93 c-1 51 -1 98 0 103 0 6 19 -24 41 -65 50 -92
104 -167 131 -181 15 -8 25 -7 44 6 35 23 31 60 -17 130 -42 61 -109 190 -109
210 0 6 16 40 35 75 79 147 22 287 -127 310 -29 4 -62 11 -73 14 -11 3 -28 1
-37 -4z m142 -140 c32 -32 27 -99 -8 -133 -15 -15 -31 -27 -35 -27 -9 0 -9
164 0 173 11 11 22 8 43 -13z"/>
<path d="M7046 5614 c-16 -8 -36 -14 -46 -14 -45 0 -81 -97 -135 -364 -34
-166 -43 -268 -27 -293 6 -9 21 -10 52 -5 43 7 46 10 58 52 8 25 15 51 18 58
2 7 22 12 54 12 l50 0 0 -33 c0 -44 38 -82 73 -73 29 7 47 43 40 79 -4 20 -1
27 10 27 23 0 47 28 47 54 0 26 -28 56 -52 56 -12 0 -20 37 -38 198 -13 108
-27 207 -31 219 -12 34 -41 44 -73 27z m10 -361 l7 -83 -35 0 -35 0 20 90 c11
50 24 87 28 83 4 -5 11 -45 15 -90z"/>
<path d="M9410 5620 c-8 -5 -29 -10 -46 -10 -92 0 -147 -67 -96 -114 17 -14
19 -40 25 -247 l6 -232 -24 -19 c-29 -22 -32 -50 -9 -72 30 -31 166 -13 189
24 4 7 13 150 21 319 12 290 12 307 -5 331 -20 28 -39 34 -61 20z"/>
<path d="M9916 5615 c-14 -8 -35 -15 -48 -17 -33 -5 -55 -51 -93 -203 -50
-201 -82 -397 -69 -432 9 -25 14 -28 49 -25 52 4 61 13 75 72 l12 50 47 0 47
0 10 -42 c12 -58 49 -80 89 -54 24 16 27 22 21 57 -5 34 -4 39 14 39 11 0 27
11 36 25 21 32 7 71 -30 81 -28 7 -27 1 -57 244 -11 96 -25 182 -30 191 -12
23 -43 29 -73 14z m17 -382 l5 -63 -34 0 c-19 0 -34 3 -34 8 1 10 19 90 32
137 l11 40 7 -30 c5 -16 10 -58 13 -92z"/>
<path d="M7502 5603 c-29 -24 -42 -111 -42 -282 0 -141 14 -219 52 -295 46
-93 93 -109 165 -57 142 103 197 406 102 556 -41 64 -80 86 -154 84 -33 0 -69
2 -81 6 -13 4 -28 0 -42 -12z m196 -183 c39 -77 23 -194 -39 -279 -17 -24 -32
-41 -34 -39 -12 12 -25 214 -19 299 l7 99 31 -18 c17 -9 41 -37 54 -62z"/>
<path d="M8108 5587 c-9 -6 -26 -50 -38 -97 -19 -70 -24 -120 -27 -281 -5
-193 -5 -197 17 -219 17 -17 29 -21 52 -16 21 4 37 0 58 -16 40 -29 139 -31
169 -4 12 11 21 29 21 41 0 29 -32 57 -62 55 -69 -6 -68 -7 -68 80 l0 80 34 0
c35 0 66 27 66 57 0 22 -39 53 -66 53 l-26 0 4 74 c2 41 5 77 8 79 3 3 29 0
58 -6 38 -8 58 -8 70 -1 22 14 27 67 8 83 -40 34 -248 62 -278 38z"/>
</g>
</svg>
